Coordinates
version=1
nRows=5
nColumns=40
inDegrees=yes

Units are S.I. units (second, meters, Newtons, ...)
If the header above contains a line with 'inDegrees', this indicates whether rotational values are in degrees (yes) or radians (no).

endheader
time	pelvis_tilt	pelvis_list	pelvis_rotation	pelvis_tx	pelvis_ty	pelvis_tz	hip_flexion_r	hip_adduction_r	hip_rotation_r	knee_angle_r	knee_angle_r_beta	ankle_angle_r	subtalar_angle_r	mtp_angle_r	hip_flexion_l	hip_adduction_l	hip_rotation_l	knee_angle_l	knee_angle_l_beta	ankle_angle_l	subtalar_angle_l	mtp_angle_l	lumbar_extension	lumbar_bending	lumbar_rotation	arm_flex_r	arm_add_r	arm_rot_r	elbow_flex_r	pro_sup_r	wrist_flex_r	wrist_dev_r	arm_flex_l	arm_add_l	arm_rot_l	elbow_flex_l	pro_sup_l	wrist_flex_l	wrist_dev_l
      7.50000000	     -5.70851324	      3.30678603	   -178.22780261	      0.26690713	      0.89902330	     -0.60039456	      1.69019873	     -8.39272046	    -19.95043451	      6.63639572	      0.11582696	     -1.89572578	      0.00000000	      0.00000000	      4.03009353	    -17.92318724	    -15.63574357	     10.97256075	      0.19150731	      0.84013318	      0.00000000	      0.00000000	    -13.92366676	      1.09790177	      1.97190849	      9.25308398	    -18.46477686	     38.77942480	     19.94372594	     83.47991131	      0.00000000	      0.00000000	     17.71350984	    -13.54492395	     58.49158565	     12.53092160	     65.50411305	      0.00000000	      0.00000000
      7.50500000	     -5.87237802	      3.33226575	   -178.35474200	      0.26629573	      0.89944039	     -0.60048230	      1.39229384	     -8.32758871	    -19.87175387	      6.44325906	      0.11245609	     -1.95281853	      0.00000000	      0.00000000	      3.59211555	    -17.91639815	    -15.79862855	     10.67004194	      0.18622736	      0.68067505	      0.00000000	      0.00000000	    -13.94244290	      1.10134202	      2.07212896	      9.03435935	    -18.42882885	     38.39741578	     20.03898683	     83.20409604	      0.00000000	      0.00000000	     17.44445060	    -13.44964103	     57.58894803	     12.50634881	     65.20953289	      0.00000000	      0.00000000
      7.51000000	     -6.00060778	      3.33185284	   -178.43689842	      0.26568392	      0.89974469	     -0.60044939	      1.13483847	     -8.30515506	    -19.82388499	      6.27071930	      0.10944470	     -2.01960954	      0.00000000	      0.00000000	      3.31118086	    -17.91596347	    -16.04447985	     10.58854942	      0.18480505	      0.70431012	      0.00000000	      0.00000000	    -13.91679733	      1.07641196	      2.20295300	      8.72936606	    -18.52913533	     38.30348986	     20.36106625	     82.21133184	      0.00000000	      0.00000000	     17.22359085	    -13.44848959	     57.20455270	     12.68188345	     64.00631847	      0.00000000	      0.00000000
      7.51500000	     -6.08012575	      3.21729720	   -178.53562397	      0.26511760	      0.90003382	     -0.60050649	      0.97623465	     -8.42060845	    -19.72299930	      6.17920241	      0.10784743	     -2.01735468	      0.00000000	      0.00000000	      2.97237251	    -17.73436871	    -16.12899214	     10.25147367	      0.17892197	      0.53035194	      0.00000000	      0.00000000	    -13.85202665	      0.92716430	      2.21583825	      8.56062999	    -18.44028624	     38.02822119	     20.37809405	     82.06525675	      0.00000000	      0.00000000	     16.92038144	    -13.43603387	     56.31222923	     12.80476244	     63.19541535	      0.00000000	      0.00000000
      7.52000000	     -6.20394638	      3.13416415	   -178.60488836	      0.26452482	      0.90033338	     -0.60055886	      0.77091539	     -8.49649309	    -19.64772514	      6.11234176	      0.10668049	     -2.05115151	      0.00000000	      0.00000000	      2.60824720	    -17.60007597	    -16.23635136	      9.95371959	      0.17372518	      0.44585276	      0.00000000	      0.00000000	    -13.83748551	      0.81114724	      2.26549771	      8.34376262	    -18.32419442	     37.47458883	     20.40765932	     81.78727287	      0.00000000	      0.00000000	     16.65221588	    -13.34836291	     55.27164771	     12.85009729	     62.15592636	      0.00000000	      0.00000000
